<svg xmlns="http://www.w3.org/2000/svg" viewBox="0 0 900 700" width="100%" height="100%">
  <rect width="900" height="700" fill="#1e1e24" />
  
  <text x="450" y="35" fill="#ffffff" font-family="Arial, sans-serif" font-size="22" font-weight="bold" text-anchor="middle">Ultrasonic Detector Wiring Diagram with LCD 1602</text>

  <g fill="none" stroke-linecap="round" stroke-linejoin="round" stroke-width="2.5">
    <path d="M 100,265 L 100,640 L 850,640" stroke="#e53935" />
    <path d="M 100,295 L 85,295 L 85,660 L 870,660" stroke="#000000" />

    <path d="M 505,400 L 505,430 L 100,430" stroke="#e53935" />
    <path d="M 540,400 L 540,420 L 310,420 L 310,295 L 270,295" stroke="#4caf50" />
    <path d="M 575,400 L 575,410 L 320,410 L 320,275 L 270,275" stroke="#ffeb3b" />
    <path d="M 610,400 L 610,440 L 85,440" stroke="#000000" />

    <path d="M 390,510 L 390,450 L 330,450 L 330,315 L 270,315" stroke="#ff9800" />
    <path d="M 430,510 L 430,530 L 85,530" stroke="#000000" />

    <path d="M 675,530 L 675,660" stroke="#000000" />
    <path d="M 745,530 L 745,640" stroke="#e53935" />
    <path d="M 710,530 L 710,490 L 515,490 L 515,240" stroke="#00bcd4" />

    <path d="M 475,240 L 475,260 L 120,260 L 120,660" stroke="#000000" />
    <path d="M 495,240 L 495,250 L 130,250 L 130,640" stroke="#e53935" />
    <path d="M 535,240 L 535,265 L 290,265 L 290,235 L 270,235" stroke="#e91e63" />
    <path d="M 555,240 L 555,275 L 140,275 L 140,660" stroke="#000000" />
    <path d="M 575,240 L 575,285 L 280,285 L 280,255 L 270,255" stroke="#9c27b0" />
    
    <path d="M 595,240 L 595,300 L 290,300 L 290,345 L 270,345" stroke="#03a9f4" />
    <path d="M 615,240 L 615,310 L 300,310 L 300,365 L 270,365" stroke="#2196f3" />
    <path d="M 635,240 L 635,320 L 310,320 L 310,385 L 270,385" stroke="#3f51b5" />
    <path d="M 655,240 L 655,330 L 320,330 L 320,405 L 270,405" stroke="#009688" />

    <path d="M 745,240 L 745,260 L 765,260 L 765,610 L 110,610 L 110,640" stroke="#e53935" />
    <path d="M 765,240 L 765,250 L 785,250 L 785,620 L 120,620 L 120,660" stroke="#000000" />
  </g>

  <g transform="translate(50, 150)">
    <rect width="220" height="320" rx="10" fill="#00838f" stroke="#005662" stroke-width="3"/>
    <text x="110" y="40" fill="#ffffff" font-family="Arial, sans-serif" font-size="18" font-weight="bold" text-anchor="middle">Arduino Uno</text>
    
    <rect x="-10" y="80" width="15" height="120" fill="#333"/>
    <circle cx="5" cy="115" r="4" fill="#ffd54f"/>
    <text x="18" y="119" fill="#fff" font-family="Arial" font-size="12">5V</text>
    <circle cx="5" cy="145" r="4" fill="#ffd54f"/>
    <text x="18" y="149" fill="#fff" font-family="Arial" font-size="12">GND</text>
    
    <rect x="215" y="60" width="15" height="220" fill="#333"/>
    <text x="145" y="89" fill="#fff" font-family="Arial" font-size="12">D12 (RS)</text> <circle cx="215" cy="85" r="4" fill="#ffd54f"/>
    <text x="153" y="109" fill="#fff" font-family="Arial" font-size="12">D11 (E)</text> <circle cx="215" cy="105" r="4" fill="#ffd54f"/>
    <text x="127" y="129" fill="#fff" font-family="Arial" font-size="12">D10 (ECHO)</text> <circle cx="215" cy="125" r="4" fill="#ffd54f"/>
    <text x="133" y="149" fill="#fff" font-family="Arial" font-size="12">D9 (TRIG)</text> <circle cx="215" cy="145" r="4" fill="#ffd54f"/>
    <text x="132" y="169" fill="#fff" font-family="Arial" font-size="12">D8 (BUZZ)</text> <circle cx="215" cy="165" r="4" fill="#ffd54f"/>
    <text x="190" y="199" fill="#fff" font-family="Arial" font-size="12">D7</text> <circle cx="215" cy="195" r="4" fill="#ffd54f"/>
    <text x="190" y="219" fill="#fff" font-family="Arial" font-size="12">D6</text> <circle cx="215" cy="215" r="4" fill="#ffd54f"/>
    <text x="190" y="239" fill="#fff" font-family="Arial" font-size="12">D5</text> <circle cx="215" cy="235" r="4" fill="#ffd54f"/>
    <text x="190" y="259" fill="#fff" font-family="Arial" font-size="12">D4</text> <circle cx="215" cy="255" r="4" fill="#ffd54f"/>
  </g>

  <g transform="translate(460, 80)">
    <rect width="330" height="160" rx="5" fill="#2e7d32" stroke="#1b5e20" stroke-width="3"/>
    <rect x="25" y="25" width="280" height="70" fill="#0d47a1" rx="2"/>
    <text x="165" y="65" fill="#90caf9" font-family="Courier New" font-size="20" font-weight="bold" text-anchor="middle">16x2 Display</text>
    
    <g transform="translate(15, 135)">
      <circle cx="10" cy="10" r="5" fill="#ffd54f"/> <text x="10" y="28" fill="#fff" font-family="Arial" font-size="9" text-anchor="middle">VSS</text>
      <circle cx="30" cy="10" r="5" fill="#ffd54f"/> <text x="30" y="28" fill="#fff" font-family="Arial" font-size="9" text-anchor="middle">VDD</text>
      <circle cx="50" cy="10" r="5" fill="#ffd54f"/> <text x="50" y="28" fill="#fff" font-family="Arial" font-size="9" text-anchor="middle">VO</text>
      <circle cx="70" cy="10" r="5" fill="#ffd54f"/> <text x="70" y="28" fill="#fff" font-family="Arial" font-size="9" text-anchor="middle">RS</text>
      <circle cx="90" cy="10" r="5" fill="#ffd54f"/> <text x="90" y="28" fill="#fff" font-family="Arial" font-size="9" text-anchor="middle">RW</text>
      <circle cx="110" cy="10" r="5" fill="#ffd54f"/> <text x="110" y="28" fill="#fff" font-family="Arial" font-size="9" text-anchor="middle">E</text>
      
      <text x="190" cy="15" fill="#ffd54f" font-family="Arial" font-size="11" font-weight="bold">D4-D7</text>
      <circle cx="150" cy="10" r="4" fill="#ffd54f"/>
      <circle cx="170" cy="10" r="4" fill="#ffd54f"/>
      <circle cx="190" cy="10" r="4" fill="#ffd54f"/>
      <circle cx="210" cy="10" r="4" fill="#ffd54f"/>

      <circle cx="280" cy="10" r="5" fill="#ffd54f"/> <text x="280" y="28" fill="#fff" font-family="Arial" font-size="9" text-anchor="middle">A</text>
      <circle cx="300" cy="10" r="5" fill="#ffd54f"/> <text x="300" y="28" fill="#fff" font-family="Arial" font-size="9" text-anchor="middle">K</text>
    </g>
  </g>

  <g transform="translate(470, 310)">
    <rect width="180" height="90" rx="8" fill="#1565c0" stroke="#0d47a1" stroke-width="2"/>
    <circle cx="45" cy="45" r="25" fill="#b0bec5" stroke="#37474f" stroke-width="3"/>
    <circle cx="45" cy="45" r="12" fill="#78909c"/>
    <circle cx="135" cy="45" r="25" fill="#b0bec5" stroke="#37474f" stroke-width="3"/>
    <circle cx="135" cy="45" r="12" fill="#78909c"/>
    <g fill="#ffd54f">
      <circle cx="35" cy="85" r="4"/>
      <circle cx="70" cy="85" r="4"/>
      <circle cx="105" cy="85" r="4"/>
      <circle cx="140" cy="85" r="4"/>
    </g>
    <text x="90" y="78" fill="#fff" font-family="Arial" font-size="10" text-anchor="middle" word-spacing="10">VCC TRIG ECHO GND</text>
  </g>

  <g transform="translate(350, 510)">
    <circle cx="40" cy="40" r="35" fill="#212121" stroke="#424242" stroke-width="2"/>
    <circle cx="40" cy="40" r="8" fill="#111"/>
    <circle cx="40" cy="15" r="3" fill="#ffd54f"/> <text x="48" y="18" fill="#fff" font-family="Arial" font-size="10">+</text>
    <circle cx="80" cy="40" r="3" fill="#ffd54f"/> <text x="76" y="53" fill="#fff" font-family="Arial" font-size="10">-</text>
    <text x="40" y="92" fill="#fff" font-family="Arial" font-size="12" text-anchor="middle">Piezo Buzzer</text>
  </g>

  <g transform="translate(640, 530)">
    <rect width="140" height="60" rx="5" fill="#4e342e"/>
    <circle cx="70" cy="25" r="18" fill="#9e9e9e"/>
    <line x1="70" y1="25" x2="70" y2="10" stroke="#333" stroke-width="4"/>
    <circle cx="35" cy="55" r="4" fill="#ffd54f"/>
    <circle cx="70" cy="55" r="4" fill="#ffd54f"/>
    <circle cx="105" cy="55" r="4" fill="#ffd54f"/>
    <text x="70" y="85" fill="#fff" font-family="Arial" font-size="12" text-anchor="middle">10k Potentiometer</text>
  </g>

  <text x="115" y="635" fill="#e53935" font-family="Arial" font-size="11" font-weight="bold">5V Power Rail</text>
  <text x="115" y="655" fill="#ffffff" font-family="Arial" font-size="11" font-weight="bold">GND Ground Rail</text>
</svg>
